<svg xmlns="http://www.w3.org/2000/svg" xmlns:xlink="http://www.w3.org/1999/xlink" width="48" zoomAndPan="magnify" viewBox="0 0 36 36.000001" height="48" preserveAspectRatio="xMidYMid meet" version="1.0"><defs><g/><clipPath id="9be04c739d"><path d="M 0.488281 0 L 35 0 L 35 35.027344 L 0.488281 35.027344 Z M 0.488281 0 " clip-rule="nonzero"/></clipPath><clipPath id="e15264c52f"><path d="M 1 0 L 34.578125 0 L 34.578125 26 L 1 26 Z M 1 0 " clip-rule="nonzero"/></clipPath><clipPath id="22683afa9b"><rect x="0" width="35" y="0" height="36"/></clipPath><clipPath id="b9670ef891"><path d="M 14.214844 21.734375 L 22.972656 21.734375 L 22.972656 30.492188 L 14.214844 30.492188 Z M 14.214844 21.734375 " clip-rule="nonzero"/></clipPath><clipPath id="9475afce28"><path d="M 0.324219 2 L 7 2 L 7 5 L 0.324219 5 Z M 0.324219 2 " clip-rule="nonzero"/></clipPath><clipPath id="a7e67290d5"><path d="M 6 2 L 8.496094 2 L 8.496094 5 L 6 5 Z M 6 2 " clip-rule="nonzero"/></clipPath><clipPath id="22ba9f6d65"><rect x="0" width="9" y="0" height="6"/></clipPath><clipPath id="9ba398b10d"><path d="M 0.136719 1 L 2 1 L 2 5 L 0.136719 5 Z M 0.136719 1 " clip-rule="nonzero"/></clipPath><clipPath id="abec683888"><path d="M 5 2 L 7.375 2 L 7.375 5 L 5 5 Z M 5 2 " clip-rule="nonzero"/></clipPath><clipPath id="92cfe8f34c"><rect x="0" width="8" y="0" height="6"/></clipPath></defs><g clip-path="url(#9be04c739d)"><g transform="matrix(1, 0, 0, 1, 0.000000000000000111, 0.000000000000010582)"><g clip-path="url(#22683afa9b)"><g clip-path="url(#e15264c52f)"><g fill="#ff6d4d" fill-opacity="1"><g transform="translate(1.365216, 24.104416)"><g><path d="M 29.5625 -0.234375 C 28.675781 0.734375 27.648438 1.21875 26.484375 1.21875 C 25.328125 1.21875 24.210938 0.660156 23.140625 -0.453125 C 22.066406 -1.578125 21.171875 -3.179688 20.453125 -5.265625 C 19.742188 -7.347656 19.25 -9.21875 18.96875 -10.875 C 18.332031 -9.601562 17.835938 -8.632812 17.484375 -7.96875 C 17.128906 -7.300781 16.601562 -6.453125 15.90625 -5.421875 C 15.207031 -4.390625 14.484375 -3.457031 13.734375 -2.625 C 11.390625 -0.101562 8.738281 1.15625 5.78125 1.15625 C 3.09375 1.15625 1.425781 0.429688 0.78125 -1.015625 C 0.613281 -1.347656 0.53125 -1.738281 0.53125 -2.1875 C 0.53125 -2.632812 0.757812 -3.117188 1.21875 -3.640625 C 1.957031 -4.453125 2.972656 -4.859375 4.265625 -4.859375 C 5.128906 -4.859375 6.050781 -4.6875 7.03125 -4.34375 C 7.289062 -4.25 7.390625 -4.140625 7.328125 -4.015625 C 7.265625 -3.898438 7.003906 -3.929688 6.546875 -4.109375 C 6.085938 -4.285156 5.535156 -4.375 4.890625 -4.375 C 4.253906 -4.375 3.703125 -4.125 3.234375 -3.625 C 2.765625 -3.132812 2.53125 -2.617188 2.53125 -2.078125 C 2.53125 -1.847656 2.582031 -1.59375 2.6875 -1.3125 C 3.082031 -0.28125 4.015625 0.234375 5.484375 0.234375 C 7.109375 0.234375 8.546875 -0.25 9.796875 -1.21875 C 10.515625 -1.78125 11.160156 -2.347656 11.734375 -2.921875 C 12.304688 -3.492188 12.921875 -4.265625 13.578125 -5.234375 C 14.609375 -6.722656 15.484375 -8.109375 16.203125 -9.390625 C 16.929688 -10.671875 17.71875 -12.070312 18.5625 -13.59375 C 19.40625 -15.113281 20.03125 -16.222656 20.4375 -16.921875 C 21.707031 -19.078125 22.867188 -20.734375 23.921875 -21.890625 C 22.804688 -21.984375 21.691406 -22.03125 20.578125 -22.03125 C 18.035156 -22.03125 15.507812 -21.765625 13 -21.234375 C 10.488281 -20.710938 8.5 -19.847656 7.03125 -18.640625 C 5.1875 -17.109375 4.265625 -15.484375 4.265625 -13.765625 C 4.265625 -12.929688 4.5625 -12.191406 5.15625 -11.546875 C 5.75 -10.898438 6.550781 -10.578125 7.5625 -10.578125 C 8.789062 -10.578125 9.8125 -11.007812 10.625 -11.875 C 11.445312 -12.75 11.875 -13.445312 11.90625 -13.96875 C 11.925781 -14.226562 11.988281 -14.359375 12.09375 -14.359375 C 12.25 -14.359375 12.316406 -14.207031 12.296875 -13.90625 C 12.160156 -12.957031 11.773438 -12.15625 11.140625 -11.5 C 10.023438 -10.34375 8.691406 -9.765625 7.140625 -9.765625 C 5.972656 -9.765625 4.957031 -10.160156 4.09375 -10.953125 C 3.226562 -11.753906 2.796875 -12.816406 2.796875 -14.140625 C 2.796875 -16.109375 3.753906 -17.867188 5.671875 -19.421875 C 7.585938 -20.984375 10.101562 -21.992188 13.21875 -22.453125 C 15.445312 -22.773438 17.5 -22.9375 19.375 -22.9375 C 21.25 -22.9375 22.976562 -22.828125 24.5625 -22.609375 C 25.082031 -23.160156 25.441406 -23.4375 25.640625 -23.4375 C 25.765625 -23.4375 25.828125 -23.34375 25.828125 -23.15625 C 25.828125 -22.96875 25.773438 -22.734375 25.671875 -22.453125 C 27.140625 -22.210938 28.125 -22.023438 28.625 -21.890625 C 31.601562 -21.015625 33.09375 -19.664062 33.09375 -17.84375 C 33.09375 -16.664062 32.363281 -15.503906 30.90625 -14.359375 C 29.082031 -12.941406 26.644531 -11.988281 23.59375 -11.5 C 22.71875 -11.351562 21.800781 -11.265625 20.84375 -11.234375 C 21.476562 -7.710938 22.582031 -4.753906 24.15625 -2.359375 C 24.6875 -1.535156 25.175781 -0.941406 25.625 -0.578125 C 26.070312 -0.210938 26.554688 -0.03125 27.078125 -0.03125 C 27.785156 -0.03125 28.539062 -0.425781 29.34375 -1.21875 C 30.15625 -2.007812 31.085938 -3.457031 32.140625 -5.5625 C 32.296875 -5.863281 32.453125 -6.015625 32.609375 -6.015625 C 32.765625 -6.015625 32.773438 -5.863281 32.640625 -5.5625 C 31.484375 -2.988281 30.457031 -1.210938 29.5625 -0.234375 Z M 30.9375 -18.28125 C 30.9375 -18.445312 30.921875 -18.609375 30.890625 -18.765625 C 30.671875 -19.878906 29.785156 -20.671875 28.234375 -21.140625 C 27.753906 -21.285156 26.78125 -21.472656 25.3125 -21.703125 C 24.957031 -21.085938 24.082031 -19.648438 22.6875 -17.390625 C 21.300781 -15.128906 20.269531 -13.332031 19.59375 -12 C 20.03125 -12.082031 20.671875 -12.15625 21.515625 -12.21875 C 22.359375 -12.289062 22.96875 -12.347656 23.34375 -12.390625 C 25.613281 -12.671875 27.539062 -13.554688 29.125 -15.046875 C 30.332031 -16.148438 30.9375 -17.226562 30.9375 -18.28125 Z M 30.9375 -18.28125 "/></g></g></g></g></g></g></g><g clip-path="url(#b9670ef891)"><path fill="#000000" d="M 21.453125 29.125 C 21.71875 29.449219 21.683594 29.933594 21.375 30.214844 C 21.070312 30.492188 20.601562 30.457031 20.335938 30.136719 C 20.164062 29.929688 18.875 28.136719 18.035156 26.796875 C 17.671875 26.214844 17.046875 25.902344 16.382812 25.878906 C 15.914062 25.859375 15.417969 25.628906 15.039062 25.082031 C 14.324219 24.046875 14.210938 22.78125 14.792969 22.257812 C 15.371094 21.734375 16.550781 22.035156 17.429688 22.925781 C 17.894531 23.398438 18.042969 23.941406 17.992188 24.425781 C 17.917969 25.117188 18.125 25.804688 18.621094 26.265625 C 19.769531 27.328125 21.28125 28.921875 21.453125 29.125 Z M 22.867188 23.429688 C 22.769531 23.335938 22.613281 23.339844 22.523438 23.441406 L 21.246094 24.867188 C 21.136719 24.988281 20.953125 24.996094 20.835938 24.882812 C 20.71875 24.765625 20.714844 24.574219 20.824219 24.453125 L 22.0625 23.070312 C 22.171875 22.945312 22.167969 22.75 22.046875 22.632812 C 21.929688 22.515625 21.742188 22.523438 21.628906 22.648438 L 20.390625 24.03125 C 20.28125 24.152344 20.097656 24.160156 19.980469 24.042969 C 19.863281 23.929688 19.855469 23.738281 19.964844 23.617188 L 21.242188 22.191406 C 21.332031 22.089844 21.328125 21.929688 21.230469 21.832031 C 21.132812 21.742188 20.988281 21.742188 20.894531 21.835938 L 19.300781 23.449219 C 18.953125 23.800781 18.78125 24.296875 18.835938 24.800781 L 18.839844 24.808594 C 18.867188 25.046875 18.839844 25.285156 18.765625 25.507812 C 18.832031 25.621094 18.914062 25.726562 19.007812 25.8125 C 19.160156 25.953125 19.316406 26.101562 19.476562 26.257812 C 19.699219 26.152344 19.941406 26.105469 20.1875 26.117188 C 20.671875 26.144531 21.140625 25.933594 21.453125 25.546875 L 22.886719 23.78125 C 22.96875 23.675781 22.960938 23.523438 22.867188 23.429688 Z M 17.460938 27.011719 C 16.484375 27.921875 15.351562 28.976562 15.238281 29.105469 C 14.960938 29.414062 14.976562 29.902344 15.273438 30.195312 C 15.574219 30.484375 16.039062 30.46875 16.320312 30.15625 C 16.425781 30.039062 17.261719 28.917969 18.035156 27.882812 C 17.863281 27.625 17.699219 27.367188 17.546875 27.128906 C 17.523438 27.085938 17.492188 27.046875 17.460938 27.011719 Z M 17.460938 27.011719 " fill-opacity="1" fill-rule="nonzero"/></g><g transform="matrix(1, 0, 0, 1, 6, 25)"><g clip-path="url(#22ba9f6d65)"><g clip-path="url(#9475afce28)"><g fill="#ff3131" fill-opacity="1"><g transform="translate(0.436502, 4.198737)"><g><path d="M 1.859375 -0.828125 L 0.65625 -0.828125 C 0.664062 -0.671875 0.707031 -0.550781 0.78125 -0.46875 C 0.863281 -0.394531 0.976562 -0.359375 1.125 -0.359375 C 1.226562 -0.359375 1.3125 -0.378906 1.375 -0.421875 C 1.445312 -0.460938 1.503906 -0.523438 1.546875 -0.609375 L 1.578125 -0.609375 L 1.890625 -0.40625 C 1.828125 -0.269531 1.734375 -0.160156 1.609375 -0.078125 C 1.484375 -0.00390625 1.320312 0.03125 1.125 0.03125 C 0.925781 0.03125 0.753906 -0.00390625 0.609375 -0.078125 C 0.472656 -0.148438 0.363281 -0.257812 0.28125 -0.40625 C 0.207031 -0.550781 0.171875 -0.726562 0.171875 -0.9375 C 0.171875 -1.15625 0.207031 -1.335938 0.28125 -1.484375 C 0.363281 -1.628906 0.472656 -1.738281 0.609375 -1.8125 C 0.753906 -1.882812 0.910156 -1.921875 1.078125 -1.921875 C 1.347656 -1.921875 1.550781 -1.847656 1.6875 -1.703125 C 1.832031 -1.566406 1.90625 -1.363281 1.90625 -1.09375 C 1.90625 -0.988281 1.90625 -0.910156 1.90625 -0.859375 Z M 1.453125 -1.140625 C 1.453125 -1.285156 1.421875 -1.390625 1.359375 -1.453125 C 1.296875 -1.515625 1.203125 -1.546875 1.078125 -1.546875 C 0.835938 -1.546875 0.695312 -1.410156 0.65625 -1.140625 Z M 1.453125 -1.140625 "/></g></g><g transform="translate(2.487159, 4.198737)"><g><path d="M 0.734375 0.03125 C 0.609375 0.03125 0.5 0.0078125 0.40625 -0.03125 C 0.320312 -0.0703125 0.253906 -0.132812 0.203125 -0.21875 C 0.160156 -0.3125 0.140625 -0.414062 0.140625 -0.53125 C 0.140625 -0.644531 0.160156 -0.738281 0.203125 -0.8125 C 0.253906 -0.894531 0.332031 -0.957031 0.4375 -1 C 0.539062 -1.050781 0.671875 -1.085938 0.828125 -1.109375 C 0.941406 -1.128906 1.023438 -1.148438 1.078125 -1.171875 C 1.140625 -1.191406 1.179688 -1.21875 1.203125 -1.25 C 1.222656 -1.28125 1.234375 -1.316406 1.234375 -1.359375 C 1.234375 -1.410156 1.210938 -1.453125 1.171875 -1.484375 C 1.128906 -1.523438 1.0625 -1.546875 0.96875 -1.546875 C 0.863281 -1.546875 0.757812 -1.519531 0.65625 -1.46875 C 0.5625 -1.425781 0.484375 -1.363281 0.421875 -1.28125 L 0.390625 -1.28125 L 0.1875 -1.578125 C 0.28125 -1.691406 0.394531 -1.773438 0.53125 -1.828125 C 0.675781 -1.890625 0.828125 -1.921875 0.984375 -1.921875 C 1.234375 -1.921875 1.414062 -1.867188 1.53125 -1.765625 C 1.644531 -1.660156 1.703125 -1.507812 1.703125 -1.3125 L 1.703125 -0.5 C 1.703125 -0.40625 1.738281 -0.359375 1.8125 -0.359375 C 1.832031 -0.359375 1.859375 -0.363281 1.890625 -0.375 L 1.921875 -0.375 L 1.953125 -0.046875 C 1.921875 -0.0234375 1.878906 -0.0078125 1.828125 0 C 1.785156 0.0078125 1.738281 0.015625 1.6875 0.015625 C 1.570312 0.015625 1.484375 -0.00390625 1.421875 -0.046875 C 1.359375 -0.0859375 1.3125 -0.15625 1.28125 -0.25 L 1.25 -0.265625 C 1.15625 -0.0664062 0.984375 0.03125 0.734375 0.03125 Z M 0.890625 -0.3125 C 0.992188 -0.3125 1.078125 -0.347656 1.140625 -0.421875 C 1.210938 -0.492188 1.25 -0.597656 1.25 -0.734375 L 1.25 -0.921875 L 1.21875 -0.9375 C 1.1875 -0.914062 1.144531 -0.894531 1.09375 -0.875 C 1.050781 -0.863281 0.988281 -0.847656 0.90625 -0.828125 C 0.800781 -0.816406 0.722656 -0.789062 0.671875 -0.75 C 0.628906 -0.707031 0.609375 -0.644531 0.609375 -0.5625 C 0.609375 -0.476562 0.628906 -0.414062 0.671875 -0.375 C 0.722656 -0.332031 0.796875 -0.3125 0.890625 -0.3125 Z M 0.890625 -0.3125 "/></g></g><g transform="translate(4.476245, 4.198737)"><g><path d="M 0.875 0.03125 C 0.75 0.03125 0.632812 0.015625 0.53125 -0.015625 C 0.425781 -0.046875 0.332031 -0.0859375 0.25 -0.140625 C 0.175781 -0.191406 0.117188 -0.25 0.078125 -0.3125 L 0.34375 -0.59375 L 0.390625 -0.59375 C 0.453125 -0.507812 0.523438 -0.445312 0.609375 -0.40625 C 0.691406 -0.363281 0.785156 -0.34375 0.890625 -0.34375 C 0.984375 -0.34375 1.050781 -0.359375 1.09375 -0.390625 C 1.132812 -0.429688 1.15625 -0.476562 1.15625 -0.53125 C 1.15625 -0.582031 1.140625 -0.625 1.109375 -0.65625 C 1.078125 -0.6875 1.023438 -0.710938 0.953125 -0.734375 L 0.703125 -0.796875 C 0.515625 -0.835938 0.375 -0.90625 0.28125 -1 C 0.195312 -1.09375 0.15625 -1.207031 0.15625 -1.34375 C 0.15625 -1.46875 0.1875 -1.570312 0.25 -1.65625 C 0.3125 -1.738281 0.394531 -1.800781 0.5 -1.84375 C 0.613281 -1.894531 0.742188 -1.921875 0.890625 -1.921875 C 1.054688 -1.921875 1.191406 -1.894531 1.296875 -1.84375 C 1.410156 -1.800781 1.5 -1.738281 1.5625 -1.65625 L 1.3125 -1.375 L 1.28125 -1.375 C 1.226562 -1.4375 1.164062 -1.476562 1.09375 -1.5 C 1.03125 -1.53125 0.960938 -1.546875 0.890625 -1.546875 C 0.703125 -1.546875 0.609375 -1.488281 0.609375 -1.375 C 0.609375 -1.320312 0.625 -1.28125 0.65625 -1.25 C 0.6875 -1.21875 0.75 -1.191406 0.84375 -1.171875 L 1.078125 -1.125 C 1.265625 -1.082031 1.398438 -1.015625 1.484375 -0.921875 C 1.578125 -0.835938 1.625 -0.71875 1.625 -0.5625 C 1.625 -0.445312 1.59375 -0.34375 1.53125 -0.25 C 1.476562 -0.15625 1.394531 -0.0820312 1.28125 -0.03125 C 1.164062 0.0078125 1.03125 0.03125 0.875 0.03125 Z M 0.875 0.03125 "/></g></g></g></g><g clip-path="url(#a7e67290d5)"><g fill="#ff3131" fill-opacity="1"><g transform="translate(6.186551, 4.198737)"><g><path d="M 0.421875 0.796875 C 0.335938 0.796875 0.257812 0.789062 0.1875 0.78125 C 0.125 0.769531 0.0703125 0.753906 0.03125 0.734375 L 0.109375 0.34375 L 0.140625 0.34375 C 0.171875 0.351562 0.207031 0.363281 0.25 0.375 C 0.289062 0.382812 0.332031 0.390625 0.375 0.390625 C 0.457031 0.390625 0.519531 0.378906 0.5625 0.359375 C 0.613281 0.335938 0.65625 0.300781 0.6875 0.25 C 0.726562 0.207031 0.765625 0.144531 0.796875 0.0625 L 0.046875 -1.890625 L 0.53125 -1.890625 L 1 -0.578125 L 1.046875 -0.578125 L 1.5 -1.890625 L 1.984375 -1.890625 L 1.234375 0.125 C 1.171875 0.28125 1.101562 0.40625 1.03125 0.5 C 0.957031 0.601562 0.867188 0.675781 0.765625 0.71875 C 0.671875 0.769531 0.554688 0.796875 0.421875 0.796875 Z M 0.421875 0.796875 "/></g></g></g></g></g></g><g transform="matrix(1, 0, 0, 1, 23, 25)"><g clip-path="url(#92cfe8f34c)"><g clip-path="url(#9ba398b10d)"><g fill="#ff3131" fill-opacity="1"><g transform="translate(0.245243, 4.438982)"><g><path d="M 0.78125 0.03125 C 0.601562 0.03125 0.46875 -0.0078125 0.375 -0.09375 C 0.289062 -0.1875 0.25 -0.328125 0.25 -0.515625 L 0.25 -2.625 L 0.734375 -2.625 L 0.734375 -0.53125 C 0.734375 -0.414062 0.78125 -0.359375 0.875 -0.359375 C 0.894531 -0.359375 0.921875 -0.363281 0.953125 -0.375 L 0.984375 -0.375 L 1.015625 -0.015625 C 0.992188 0.00390625 0.960938 0.015625 0.921875 0.015625 C 0.878906 0.0234375 0.832031 0.03125 0.78125 0.03125 Z M 0.78125 0.03125 "/></g></g></g></g><g fill="#ff3131" fill-opacity="1"><g transform="translate(1.320454, 4.438982)"><g><path d="M 0.734375 0.03125 C 0.609375 0.03125 0.5 0.0078125 0.40625 -0.03125 C 0.320312 -0.0703125 0.253906 -0.132812 0.203125 -0.21875 C 0.160156 -0.3125 0.140625 -0.414062 0.140625 -0.53125 C 0.140625 -0.644531 0.160156 -0.738281 0.203125 -0.8125 C 0.253906 -0.882812 0.328125 -0.941406 0.421875 -0.984375 C 0.523438 -1.035156 0.660156 -1.078125 0.828125 -1.109375 C 0.929688 -1.128906 1.015625 -1.148438 1.078125 -1.171875 C 1.140625 -1.191406 1.175781 -1.210938 1.1875 -1.234375 C 1.207031 -1.265625 1.21875 -1.300781 1.21875 -1.34375 C 1.21875 -1.40625 1.195312 -1.453125 1.15625 -1.484375 C 1.113281 -1.515625 1.046875 -1.53125 0.953125 -1.53125 C 0.847656 -1.53125 0.75 -1.503906 0.65625 -1.453125 C 0.5625 -1.410156 0.484375 -1.351562 0.421875 -1.28125 L 0.375 -1.28125 L 0.1875 -1.5625 C 0.28125 -1.675781 0.394531 -1.757812 0.53125 -1.8125 C 0.664062 -1.875 0.816406 -1.90625 0.984375 -1.90625 C 1.222656 -1.90625 1.398438 -1.851562 1.515625 -1.75 C 1.628906 -1.644531 1.6875 -1.492188 1.6875 -1.296875 L 1.6875 -0.484375 C 1.6875 -0.398438 1.722656 -0.359375 1.796875 -0.359375 C 1.816406 -0.359375 1.84375 -0.363281 1.875 -0.375 L 1.90625 -0.375 L 1.9375 -0.046875 C 1.90625 -0.0234375 1.863281 -0.0078125 1.8125 0 C 1.769531 0.0078125 1.722656 0.015625 1.671875 0.015625 C 1.554688 0.015625 1.46875 -0.00390625 1.40625 -0.046875 C 1.34375 -0.0859375 1.300781 -0.15625 1.28125 -0.25 L 1.234375 -0.25 C 1.148438 -0.0625 0.984375 0.03125 0.734375 0.03125 Z M 0.875 -0.3125 C 0.988281 -0.3125 1.078125 -0.347656 1.140625 -0.421875 C 1.203125 -0.492188 1.234375 -0.597656 1.234375 -0.734375 L 1.234375 -0.921875 L 1.203125 -0.921875 C 1.171875 -0.898438 1.128906 -0.878906 1.078125 -0.859375 C 1.035156 -0.847656 0.972656 -0.835938 0.890625 -0.828125 C 0.785156 -0.804688 0.710938 -0.773438 0.671875 -0.734375 C 0.628906 -0.691406 0.609375 -0.632812 0.609375 -0.5625 C 0.609375 -0.476562 0.628906 -0.414062 0.671875 -0.375 C 0.722656 -0.332031 0.789062 -0.3125 0.875 -0.3125 Z M 0.875 -0.3125 "/></g></g></g><g fill="#ff3131" fill-opacity="1"><g transform="translate(3.292804, 4.438982)"><g><path d="M 1.3125 0.03125 C 1.070312 0.03125 0.894531 -0.0546875 0.78125 -0.234375 L 0.734375 -0.21875 L 0.734375 0 L 0.265625 0 L 0.265625 -2.625 L 0.734375 -2.625 L 0.734375 -1.640625 L 0.78125 -1.640625 C 0.84375 -1.734375 0.914062 -1.800781 1 -1.84375 C 1.09375 -1.882812 1.195312 -1.90625 1.3125 -1.90625 C 1.46875 -1.90625 1.597656 -1.867188 1.703125 -1.796875 C 1.816406 -1.722656 1.90625 -1.613281 1.96875 -1.46875 C 2.039062 -1.320312 2.078125 -1.144531 2.078125 -0.9375 C 2.078125 -0.71875 2.039062 -0.535156 1.96875 -0.390625 C 1.90625 -0.242188 1.816406 -0.132812 1.703125 -0.0625 C 1.585938 0 1.457031 0.03125 1.3125 0.03125 Z M 1.15625 -0.359375 C 1.300781 -0.359375 1.410156 -0.40625 1.484375 -0.5 C 1.554688 -0.59375 1.59375 -0.738281 1.59375 -0.9375 C 1.59375 -1.132812 1.554688 -1.273438 1.484375 -1.359375 C 1.410156 -1.453125 1.300781 -1.5 1.15625 -1.5 C 1.03125 -1.5 0.925781 -1.453125 0.84375 -1.359375 C 0.769531 -1.265625 0.734375 -1.125 0.734375 -0.9375 C 0.734375 -0.738281 0.769531 -0.59375 0.84375 -0.5 C 0.925781 -0.40625 1.03125 -0.359375 1.15625 -0.359375 Z M 1.15625 -0.359375 "/></g></g></g><g clip-path="url(#abec683888)"><g fill="#ff3131" fill-opacity="1"><g transform="translate(5.533109, 4.438982)"><g><path d="M 0.875 0.03125 C 0.75 0.03125 0.628906 0.0195312 0.515625 0 C 0.410156 -0.03125 0.320312 -0.0703125 0.25 -0.125 C 0.175781 -0.1875 0.117188 -0.25 0.078125 -0.3125 L 0.34375 -0.59375 L 0.375 -0.59375 C 0.4375 -0.507812 0.507812 -0.445312 0.59375 -0.40625 C 0.6875 -0.363281 0.78125 -0.34375 0.875 -0.34375 C 0.96875 -0.34375 1.035156 -0.359375 1.078125 -0.390625 C 1.128906 -0.421875 1.15625 -0.46875 1.15625 -0.53125 C 1.15625 -0.582031 1.132812 -0.625 1.09375 -0.65625 C 1.0625 -0.6875 1.007812 -0.710938 0.9375 -0.734375 L 0.6875 -0.78125 C 0.507812 -0.832031 0.375 -0.898438 0.28125 -0.984375 C 0.195312 -1.078125 0.15625 -1.195312 0.15625 -1.34375 C 0.15625 -1.457031 0.1875 -1.554688 0.25 -1.640625 C 0.3125 -1.722656 0.394531 -1.785156 0.5 -1.828125 C 0.601562 -1.878906 0.726562 -1.90625 0.875 -1.90625 C 1.039062 -1.90625 1.179688 -1.878906 1.296875 -1.828125 C 1.410156 -1.785156 1.5 -1.722656 1.5625 -1.640625 L 1.296875 -1.359375 L 1.265625 -1.359375 C 1.210938 -1.421875 1.15625 -1.460938 1.09375 -1.484375 C 1.03125 -1.515625 0.957031 -1.53125 0.875 -1.53125 C 0.6875 -1.53125 0.59375 -1.472656 0.59375 -1.359375 C 0.59375 -1.304688 0.609375 -1.265625 0.640625 -1.234375 C 0.679688 -1.210938 0.742188 -1.191406 0.828125 -1.171875 L 1.0625 -1.125 C 1.25 -1.082031 1.382812 -1.015625 1.46875 -0.921875 C 1.5625 -0.828125 1.609375 -0.707031 1.609375 -0.5625 C 1.609375 -0.4375 1.578125 -0.328125 1.515625 -0.234375 C 1.460938 -0.148438 1.378906 -0.0820312 1.265625 -0.03125 C 1.160156 0.0078125 1.03125 0.03125 0.875 0.03125 Z M 0.875 0.03125 "/></g></g></g></g></g></g></svg>