<svg xmlns="http://www.w3.org/2000/svg" xmlns:xlink="http://www.w3.org/1999/xlink" width="300" zoomAndPan="magnify" viewBox="0 0 224.87999 75.119995" height="90" preserveAspectRatio="xMidYMid meet" version="1.0"><defs><g/><clipPath id="f977878938"><path d="M 126 0 L 150.402344 0 L 150.402344 22.695312 L 126 22.695312 Z M 126 0 " clip-rule="nonzero"/></clipPath></defs><g fill="#ff6d4d" fill-opacity="1"><g transform="translate(37.845097, 45.961574)"><g><path d="M 58.28125 -0.46875 C 56.519531 1.445312 54.492188 2.40625 52.203125 2.40625 C 49.910156 2.40625 47.707031 1.300781 45.59375 -0.90625 C 43.488281 -3.113281 41.726562 -6.269531 40.3125 -10.375 C 38.90625 -14.488281 37.929688 -18.171875 37.390625 -21.421875 C 36.128906 -18.921875 35.144531 -17.015625 34.4375 -15.703125 C 33.738281 -14.390625 32.703125 -12.710938 31.328125 -10.671875 C 29.960938 -8.640625 28.539062 -6.804688 27.0625 -5.171875 C 22.4375 -0.203125 17.210938 2.28125 11.390625 2.28125 C 6.109375 2.28125 2.820312 0.851562 1.53125 -2 C 1.21875 -2.664062 1.0625 -3.4375 1.0625 -4.3125 C 1.0625 -5.195312 1.507812 -6.144531 2.40625 -7.15625 C 3.851562 -8.757812 5.847656 -9.5625 8.390625 -9.5625 C 10.109375 -9.5625 11.925781 -9.226562 13.84375 -8.5625 C 14.351562 -8.375 14.550781 -8.160156 14.4375 -7.921875 C 14.320312 -7.691406 13.8125 -7.75 12.90625 -8.09375 C 12.007812 -8.445312 10.925781 -8.625 9.65625 -8.625 C 8.382812 -8.625 7.285156 -8.132812 6.359375 -7.15625 C 5.441406 -6.175781 4.984375 -5.160156 4.984375 -4.109375 C 4.984375 -3.640625 5.082031 -3.128906 5.28125 -2.578125 C 6.0625 -0.546875 7.898438 0.46875 10.796875 0.46875 C 14.003906 0.46875 16.84375 -0.488281 19.3125 -2.40625 C 20.71875 -3.5 21.988281 -4.613281 23.125 -5.75 C 24.257812 -6.882812 25.472656 -8.410156 26.765625 -10.328125 C 28.796875 -13.265625 30.523438 -15.992188 31.953125 -18.515625 C 33.378906 -21.035156 34.921875 -23.789062 36.578125 -26.78125 C 38.242188 -29.78125 39.472656 -31.960938 40.265625 -33.328125 C 42.765625 -37.597656 45.050781 -40.867188 47.125 -43.140625 C 44.9375 -43.328125 42.742188 -43.421875 40.546875 -43.421875 C 35.546875 -43.421875 30.566406 -42.898438 25.609375 -41.859375 C 20.660156 -40.828125 16.738281 -39.117188 13.84375 -36.734375 C 10.207031 -33.722656 8.390625 -30.515625 8.390625 -27.109375 C 8.390625 -25.472656 8.972656 -24.015625 10.140625 -22.734375 C 11.316406 -21.460938 12.90625 -20.828125 14.90625 -20.828125 C 17.332031 -20.828125 19.347656 -21.6875 20.953125 -23.40625 C 22.554688 -25.132812 23.394531 -26.507812 23.46875 -27.53125 C 23.507812 -28.03125 23.628906 -28.28125 23.828125 -28.28125 C 24.140625 -28.28125 24.273438 -27.988281 24.234375 -27.40625 C 23.960938 -25.53125 23.203125 -23.945312 21.953125 -22.65625 C 19.753906 -20.382812 17.128906 -19.25 14.078125 -19.25 C 11.773438 -19.25 9.769531 -20.03125 8.0625 -21.59375 C 6.363281 -23.15625 5.515625 -25.25 5.515625 -27.875 C 5.515625 -31.75 7.398438 -35.222656 11.171875 -38.296875 C 14.953125 -41.367188 19.914062 -43.351562 26.0625 -44.25 C 30.4375 -44.875 34.472656 -45.1875 38.171875 -45.1875 C 41.867188 -45.1875 45.285156 -44.972656 48.421875 -44.546875 C 49.429688 -45.640625 50.132812 -46.1875 50.53125 -46.1875 C 50.757812 -46.1875 50.875 -46 50.875 -45.625 C 50.875 -45.257812 50.78125 -44.800781 50.59375 -44.25 C 53.488281 -43.78125 55.425781 -43.410156 56.40625 -43.140625 C 62.269531 -41.410156 65.203125 -38.75 65.203125 -35.15625 C 65.203125 -32.84375 63.773438 -30.550781 60.921875 -28.28125 C 57.316406 -25.507812 52.503906 -23.632812 46.484375 -22.65625 C 44.753906 -22.382812 42.953125 -22.207031 41.078125 -22.125 C 42.328125 -15.195312 44.5 -9.367188 47.59375 -4.640625 C 48.65625 -3.035156 49.625 -1.867188 50.5 -1.140625 C 51.382812 -0.421875 52.332031 -0.0625 53.34375 -0.0625 C 54.75 -0.0625 56.242188 -0.84375 57.828125 -2.40625 C 59.421875 -3.96875 61.253906 -6.820312 63.328125 -10.96875 C 63.640625 -11.5625 63.953125 -11.859375 64.265625 -11.859375 C 64.578125 -11.859375 64.597656 -11.5625 64.328125 -10.96875 C 62.054688 -5.882812 60.039062 -2.382812 58.28125 -0.46875 Z M 60.96875 -36.03125 C 60.96875 -36.34375 60.929688 -36.65625 60.859375 -36.96875 C 60.429688 -39.164062 58.691406 -40.734375 55.640625 -41.671875 C 54.703125 -41.941406 52.785156 -42.3125 49.890625 -42.78125 C 49.179688 -41.570312 47.457031 -38.734375 44.71875 -34.265625 C 41.976562 -29.804688 39.941406 -26.269531 38.609375 -23.65625 C 39.472656 -23.8125 40.734375 -23.957031 42.390625 -24.09375 C 44.054688 -24.226562 45.265625 -24.332031 46.015625 -24.40625 C 50.472656 -24.957031 54.265625 -26.703125 57.390625 -29.640625 C 59.773438 -31.828125 60.96875 -33.957031 60.96875 -36.03125 Z M 60.96875 -36.03125 "/></g></g></g><g fill="#000000" fill-opacity="1"><g transform="translate(97.938002, 45.961574)"><g><path d="M 5.921875 -9.03125 C 5.378906 -7.707031 5.109375 -6.222656 5.109375 -4.578125 C 5.109375 -3.484375 5.351562 -2.613281 5.84375 -1.96875 C 6.332031 -1.320312 7.023438 -1 7.921875 -1 C 11.484375 -1 14.710938 -4.34375 17.609375 -11.03125 C 17.878906 -11.65625 18.210938 -11.929688 18.609375 -11.859375 C 18.765625 -11.816406 18.84375 -11.71875 18.84375 -11.5625 C 18.84375 -11.40625 18.398438 -10.378906 17.515625 -8.484375 C 16.640625 -6.585938 15.75 -5.050781 14.84375 -3.875 C 12.851562 -1.132812 10.390625 0.234375 7.453125 0.234375 C 5.890625 0.234375 4.554688 -0.269531 3.453125 -1.28125 C 2.359375 -2.300781 1.8125 -3.691406 1.8125 -5.453125 C 1.8125 -7.210938 2.234375 -9.082031 3.078125 -11.0625 C 3.921875 -13.039062 5.066406 -14.878906 6.515625 -16.578125 C 7.960938 -18.273438 9.625 -19.519531 11.5 -20.3125 C 12.40625 -20.695312 13.265625 -20.890625 14.078125 -20.890625 C 14.898438 -20.890625 15.664062 -20.65625 16.375 -20.1875 C 17.039062 -19.632812 17.375 -19.03125 17.375 -18.375 C 17.375 -16.019531 15.960938 -13.769531 13.140625 -11.625 C 12.285156 -10.957031 11.070312 -10.359375 9.5 -9.828125 C 7.9375 -9.296875 6.742188 -9.03125 5.921875 -9.03125 Z M 15.78125 -18.421875 C 15.78125 -19.210938 15.46875 -19.609375 14.84375 -19.609375 C 13.75 -19.609375 12.085938 -18.253906 9.859375 -15.546875 C 8.523438 -13.910156 7.351562 -12.070312 6.34375 -10.03125 C 7 -10.03125 7.960938 -10.265625 9.234375 -10.734375 C 10.515625 -11.203125 11.625 -11.832031 12.5625 -12.625 C 14.707031 -14.457031 15.78125 -16.390625 15.78125 -18.421875 Z M 15.78125 -18.421875 "/></g></g></g><g fill="#000000" fill-opacity="1"><g transform="translate(112.373207, 45.961574)"><g><path d="M 14.140625 -13.5 C 15.515625 -15.144531 16.203125 -16.53125 16.203125 -17.65625 C 16.203125 -18.789062 15.734375 -19.359375 14.796875 -19.359375 C 12.953125 -19.359375 10.859375 -17.675781 8.515625 -14.3125 C 7.765625 -13.257812 7.035156 -11.875 6.328125 -10.15625 C 5.628906 -8.4375 5.28125 -6.878906 5.28125 -5.484375 C 5.28125 -4.097656 5.5625 -2.972656 6.125 -2.109375 C 6.695312 -1.253906 7.578125 -0.828125 8.765625 -0.828125 C 9.960938 -0.828125 11.066406 -1.109375 12.078125 -1.671875 C 13.097656 -2.242188 14.066406 -3.144531 14.984375 -4.375 C 15.910156 -5.601562 16.609375 -6.628906 17.078125 -7.453125 C 17.546875 -8.273438 18.191406 -9.507812 19.015625 -11.15625 C 19.285156 -11.695312 19.519531 -11.914062 19.71875 -11.8125 C 19.914062 -11.71875 20.015625 -11.582031 20.015625 -11.40625 C 20.015625 -11.238281 19.75 -10.597656 19.21875 -9.484375 C 18.6875 -8.367188 18.15625 -7.320312 17.625 -6.34375 C 17.101562 -5.363281 16.351562 -4.265625 15.375 -3.046875 C 13.613281 -0.859375 11.207031 0.234375 8.15625 0.234375 C 5.96875 0.234375 4.394531 -0.300781 3.4375 -1.375 C 2.476562 -2.457031 2 -3.703125 2 -5.109375 C 2 -6.828125 2.414062 -8.703125 3.25 -10.734375 C 4.09375 -12.773438 5.0625 -14.535156 6.15625 -16.015625 C 8.425781 -19.109375 11.050781 -20.65625 14.03125 -20.65625 C 15.476562 -20.65625 16.523438 -20.3125 17.171875 -19.625 C 17.816406 -18.945312 18.140625 -18.15625 18.140625 -17.25 C 18.140625 -15.925781 17.585938 -14.789062 16.484375 -13.84375 C 15.941406 -13.34375 15.484375 -13.09375 15.109375 -13.09375 C 14.734375 -13.09375 14.410156 -13.226562 14.140625 -13.5 Z M 14.140625 -13.5 "/></g></g></g><g fill="#ff6d4d" fill-opacity="1"><g transform="translate(127.636962, 45.961574)"><g><path d="M 11.375 -22.828125 C 10.832031 -22.359375 10.226562 -22.125 9.5625 -22.125 C 8.894531 -22.125 8.363281 -22.359375 7.96875 -22.828125 C 7.582031 -23.296875 7.429688 -23.863281 7.515625 -24.53125 C 7.628906 -25.195312 7.957031 -25.765625 8.5 -26.234375 C 9.050781 -26.703125 9.660156 -26.9375 10.328125 -26.9375 C 10.992188 -26.9375 11.53125 -26.703125 11.9375 -26.234375 C 12.351562 -25.765625 12.5 -25.195312 12.375 -24.53125 C 12.257812 -23.863281 11.925781 -23.296875 11.375 -22.828125 Z M 5.640625 -1.296875 C 6.378906 -1.296875 7.160156 -1.664062 7.984375 -2.40625 C 9.429688 -3.851562 11.269531 -6.804688 13.5 -11.265625 C 13.769531 -11.847656 14.039062 -12.023438 14.3125 -11.796875 C 14.394531 -11.710938 14.4375 -11.582031 14.4375 -11.40625 C 14.4375 -11.238281 14.28125 -10.8125 13.96875 -10.125 C 13.65625 -9.4375 13.367188 -8.816406 13.109375 -8.265625 C 12.859375 -7.722656 12.367188 -6.832031 11.640625 -5.59375 C 10.921875 -4.363281 10.269531 -3.421875 9.6875 -2.765625 C 8.082031 -0.921875 6.566406 0 5.140625 0 C 3.710938 0 2.679688 -0.425781 2.046875 -1.28125 C 1.421875 -2.144531 1.109375 -3.101562 1.109375 -4.15625 C 1.109375 -5.21875 1.363281 -6.375 1.875 -7.625 L 5.640625 -17.203125 C 5.710938 -17.429688 5.75 -17.738281 5.75 -18.125 C 5.75 -18.519531 5.515625 -19.03125 5.046875 -19.65625 L 8.28125 -19.71875 C 9.175781 -19.71875 9.703125 -19.550781 9.859375 -19.21875 C 10.015625 -18.882812 9.894531 -18.367188 9.5 -17.671875 L 4.8125 -6.6875 C 4.144531 -5.238281 3.8125 -4.007812 3.8125 -3 C 3.8125 -1.863281 4.421875 -1.296875 5.640625 -1.296875 Z M 5.640625 -1.296875 "/></g></g></g><g fill="#000000" fill-opacity="1"><g transform="translate(137.85322, 45.961574)"><g><path d="M 20.953125 -15.96875 C 20.953125 -14.238281 20.5 -12.335938 19.59375 -10.265625 C 18.695312 -8.191406 17.457031 -6.195312 15.875 -4.28125 C 14.289062 -2.363281 12.363281 -1.054688 10.09375 -0.359375 C 9.226562 -0.117188 8.238281 0 7.125 0 C 6.007812 0 4.789062 -0.351562 3.46875 -1.0625 L -2.109375 12.859375 C -2.703125 14.109375 -3.25 14.925781 -3.75 15.3125 C -4.257812 15.707031 -4.75 15.90625 -5.21875 15.90625 C -5.6875 15.90625 -5.96875 15.90625 -6.0625 15.90625 C -6.164062 15.90625 -6.519531 15.84375 -7.125 15.71875 C -7.738281 15.601562 -8.203125 15.566406 -8.515625 15.609375 C -7.648438 14.785156 -5.46875 10.878906 -1.96875 3.890625 C 1.53125 -3.085938 3.515625 -7.789062 3.984375 -10.21875 C 3.554688 -9.582031 3.148438 -9.25 2.765625 -9.21875 C 2.523438 -9.21875 2.519531 -9.441406 2.75 -9.890625 C 2.988281 -10.335938 3.382812 -11.207031 3.9375 -12.5 C 4.632812 -14.1875 4.984375 -15.742188 4.984375 -17.171875 C 4.984375 -18.597656 4.710938 -19.425781 4.171875 -19.65625 C 6.515625 -20.050781 7.878906 -20.238281 8.265625 -20.21875 C 8.660156 -20.195312 8.90625 -20.03125 9 -19.71875 C 9.101562 -19.40625 9.15625 -19.050781 9.15625 -18.65625 C 9.15625 -16.269531 8.609375 -13.613281 7.515625 -10.6875 L 8.6875 -12.5625 C 10.09375 -14.832031 11.117188 -16.296875 11.765625 -16.953125 C 12.410156 -17.617188 13.101562 -18.304688 13.84375 -19.015625 C 14.976562 -20.109375 16.078125 -20.65625 17.140625 -20.65625 C 17.453125 -20.65625 17.742188 -20.617188 18.015625 -20.546875 C 19.972656 -20.035156 20.953125 -18.507812 20.953125 -15.96875 Z M 18.140625 -16.546875 C 18.140625 -17.171875 18.007812 -17.75 17.75 -18.28125 C 17.5 -18.8125 17.097656 -19.078125 16.546875 -19.078125 C 15.179688 -19.078125 13.585938 -17.800781 11.765625 -15.25 C 9.941406 -12.707031 7.332031 -8.269531 3.9375 -1.9375 C 4.4375 -1.425781 5.132812 -1.171875 6.03125 -1.171875 C 6.9375 -1.171875 8.210938 -1.859375 9.859375 -3.234375 C 12.484375 -5.421875 14.675781 -8.140625 16.4375 -11.390625 C 17.570312 -13.492188 18.140625 -15.210938 18.140625 -16.546875 Z M 18.140625 -16.546875 "/></g></g></g><g fill="#000000" fill-opacity="1"><g transform="translate(157.569598, 45.961574)"><g><path d="M 5.921875 -9.03125 C 5.378906 -7.707031 5.109375 -6.222656 5.109375 -4.578125 C 5.109375 -3.484375 5.351562 -2.613281 5.84375 -1.96875 C 6.332031 -1.320312 7.023438 -1 7.921875 -1 C 11.484375 -1 14.710938 -4.34375 17.609375 -11.03125 C 17.878906 -11.65625 18.210938 -11.929688 18.609375 -11.859375 C 18.765625 -11.816406 18.84375 -11.71875 18.84375 -11.5625 C 18.84375 -11.40625 18.398438 -10.378906 17.515625 -8.484375 C 16.640625 -6.585938 15.75 -5.050781 14.84375 -3.875 C 12.851562 -1.132812 10.390625 0.234375 7.453125 0.234375 C 5.890625 0.234375 4.554688 -0.269531 3.453125 -1.28125 C 2.359375 -2.300781 1.8125 -3.691406 1.8125 -5.453125 C 1.8125 -7.210938 2.234375 -9.082031 3.078125 -11.0625 C 3.921875 -13.039062 5.066406 -14.878906 6.515625 -16.578125 C 7.960938 -18.273438 9.625 -19.519531 11.5 -20.3125 C 12.40625 -20.695312 13.265625 -20.890625 14.078125 -20.890625 C 14.898438 -20.890625 15.664062 -20.65625 16.375 -20.1875 C 17.039062 -19.632812 17.375 -19.03125 17.375 -18.375 C 17.375 -16.019531 15.960938 -13.769531 13.140625 -11.625 C 12.285156 -10.957031 11.070312 -10.359375 9.5 -9.828125 C 7.9375 -9.296875 6.742188 -9.03125 5.921875 -9.03125 Z M 15.78125 -18.421875 C 15.78125 -19.210938 15.46875 -19.609375 14.84375 -19.609375 C 13.75 -19.609375 12.085938 -18.253906 9.859375 -15.546875 C 8.523438 -13.910156 7.351562 -12.070312 6.34375 -10.03125 C 7 -10.03125 7.960938 -10.265625 9.234375 -10.734375 C 10.515625 -11.203125 11.625 -11.832031 12.5625 -12.625 C 14.707031 -14.457031 15.78125 -16.390625 15.78125 -18.421875 Z M 15.78125 -18.421875 "/></g></g></g><g fill="#000000" fill-opacity="1"><g transform="translate(172.004802, 45.961574)"><g><path d="M 8.390625 -1.109375 C 8.898438 -1.035156 9.253906 -1 9.453125 -1 C 11.015625 -1 12.5625 -1.914062 14.09375 -3.75 C 14.914062 -4.769531 16.378906 -7.332031 18.484375 -11.4375 C 18.566406 -11.632812 18.707031 -11.734375 18.90625 -11.734375 C 19.25 -11.773438 19.421875 -11.640625 19.421875 -11.328125 C 19.421875 -11.242188 19.332031 -11.015625 19.15625 -10.640625 C 18.988281 -10.273438 18.828125 -9.90625 18.671875 -9.53125 C 18.515625 -9.164062 18.257812 -8.628906 17.90625 -7.921875 C 17.550781 -7.210938 17.242188 -6.644531 16.984375 -6.21875 C 16.734375 -5.789062 16.410156 -5.265625 16.015625 -4.640625 C 15.628906 -4.015625 15.242188 -3.523438 14.859375 -3.171875 L 13.625 -1.875 C 12.957031 -1.207031 12.171875 -0.738281 11.265625 -0.46875 C 9.816406 0 8.410156 0.0351562 7.046875 -0.359375 C 6.148438 0.0351562 5.347656 0.234375 4.640625 0.234375 C 1.859375 0.234375 0.175781 -0.859375 -0.40625 -3.046875 C -0.519531 -3.554688 -0.578125 -4.171875 -0.578125 -4.890625 C -0.578125 -5.617188 -0.332031 -6.316406 0.15625 -6.984375 C 0.644531 -7.648438 1.160156 -8.003906 1.703125 -8.046875 C 3.703125 -11.835938 5.40625 -15.257812 6.8125 -18.3125 C 8.375 -21.632812 10.191406 -23.296875 12.265625 -23.296875 C 12.816406 -23.296875 13.351562 -23.164062 13.875 -22.90625 C 14.40625 -22.65625 14.601562 -22.375 14.46875 -22.0625 C 14.332031 -21.75 14.046875 -21.691406 13.609375 -21.890625 C 13.179688 -22.085938 12.8125 -22.1875 12.5 -22.1875 C 12.1875 -22.1875 11.914062 -22.125 11.6875 -22 C 10.351562 -21.375 9.6875 -20.023438 9.6875 -17.953125 C 9.6875 -16.859375 9.84375 -15.957031 10.15625 -15.25 C 10.46875 -14.550781 10.820312 -13.789062 11.21875 -12.96875 C 12.113281 -10.9375 12.5625 -9.273438 12.5625 -7.984375 C 12.5625 -6.691406 12.148438 -5.414062 11.328125 -4.15625 C 10.503906 -2.90625 9.523438 -1.890625 8.390625 -1.109375 Z M 6.40625 -1.53125 C 8.125 -2.851562 8.984375 -5.003906 8.984375 -7.984375 C 8.984375 -9.191406 8.84375 -10.851562 8.5625 -12.96875 C 8.289062 -15.082031 8.15625 -16.507812 8.15625 -17.25 C 8.15625 -18 8.175781 -18.507812 8.21875 -18.78125 C 5.25 -12.832031 3.410156 -9.210938 2.703125 -7.921875 C 3.523438 -7.921875 3.9375 -7.332031 3.9375 -6.15625 C 3.9375 -3.851562 4.757812 -2.3125 6.40625 -1.53125 Z M 2 -3.109375 C 2 -2.878906 2.019531 -2.625 2.0625 -2.34375 C 2.375 -1.289062 3.097656 -0.765625 4.234375 -0.765625 C 4.703125 -0.765625 5.09375 -0.84375 5.40625 -1 C 3.957031 -1.894531 3.175781 -3.363281 3.0625 -5.40625 C 2.351562 -4.695312 2 -3.929688 2 -3.109375 Z M 2 -3.109375 "/></g></g></g><g clip-path="url(#f977878938)"><path fill="#000000" d="M 146.160156 19.109375 C 146.90625 19.953125 146.8125 21.230469 145.949219 21.960938 C 145.085938 22.691406 143.785156 22.597656 143.039062 21.753906 C 142.5625 21.214844 138.957031 16.511719 136.613281 13 C 135.59375 11.472656 133.855469 10.648438 131.992188 10.585938 C 130.6875 10.542969 129.308594 9.9375 128.246094 8.496094 C 126.242188 5.78125 125.933594 2.46875 127.550781 1.097656 C 129.171875 -0.273438 132.46875 0.507812 134.921875 2.839844 C 136.222656 4.082031 136.632812 5.507812 136.488281 6.78125 C 136.28125 8.59375 136.859375 10.398438 138.253906 11.609375 C 141.460938 14.390625 145.6875 18.570312 146.160156 19.109375 Z M 150.109375 4.171875 C 149.835938 3.921875 149.40625 3.933594 149.148438 4.203125 L 145.585938 7.9375 C 145.28125 8.257812 144.765625 8.277344 144.4375 7.976562 C 144.113281 7.675781 144.09375 7.171875 144.402344 6.851562 L 147.863281 3.222656 C 148.175781 2.898438 148.15625 2.382812 147.824219 2.074219 C 147.488281 1.769531 146.964844 1.785156 146.652344 2.113281 L 143.191406 5.742188 C 142.882812 6.0625 142.371094 6.078125 142.042969 5.78125 C 141.714844 5.480469 141.699219 4.976562 142.003906 4.65625 L 145.566406 0.921875 C 145.824219 0.652344 145.808594 0.230469 145.535156 -0.0195312 C 145.273438 -0.261719 144.859375 -0.257812 144.601562 -0.0117188 L 140.144531 4.21875 C 139.175781 5.136719 138.699219 6.445312 138.855469 7.761719 L 138.859375 7.78125 C 138.933594 8.414062 138.855469 9.039062 138.65625 9.621094 C 138.84375 9.917969 139.0625 10.1875 139.328125 10.417969 C 139.753906 10.785156 140.191406 11.175781 140.640625 11.578125 C 141.257812 11.3125 141.933594 11.183594 142.628906 11.21875 C 143.980469 11.289062 145.289062 10.734375 146.164062 9.722656 L 150.164062 5.085938 C 150.398438 4.816406 150.375 4.414062 150.109375 4.171875 Z M 135.015625 13.558594 C 132.277344 15.949219 129.121094 18.714844 128.804688 19.050781 C 128.027344 19.867188 128.070312 21.144531 128.902344 21.90625 C 129.734375 22.671875 131.039062 22.628906 131.816406 21.8125 C 132.117188 21.496094 134.457031 18.5625 136.613281 15.84375 C 136.132812 15.167969 135.671875 14.496094 135.253906 13.871094 C 135.179688 13.761719 135.097656 13.65625 135.015625 13.558594 Z M 135.015625 13.558594 " fill-opacity="1" fill-rule="nonzero"/></g><g fill="#ff3131" fill-opacity="1"><g transform="translate(106.185748, 20.816782)"><g><path d="M 4.734375 -2.125 L 1.65625 -2.125 C 1.6875 -1.707031 1.800781 -1.398438 2 -1.203125 C 2.207031 -1.015625 2.488281 -0.921875 2.84375 -0.921875 C 3.113281 -0.921875 3.332031 -0.972656 3.5 -1.078125 C 3.675781 -1.179688 3.816406 -1.335938 3.921875 -1.546875 L 4.015625 -1.546875 L 4.8125 -1.03125 C 4.65625 -0.695312 4.414062 -0.425781 4.09375 -0.21875 C 3.78125 -0.0078125 3.363281 0.09375 2.84375 0.09375 C 2.34375 0.09375 1.910156 0 1.546875 -0.1875 C 1.191406 -0.375 0.914062 -0.65625 0.71875 -1.03125 C 0.53125 -1.40625 0.4375 -1.859375 0.4375 -2.390625 C 0.4375 -2.929688 0.535156 -3.390625 0.734375 -3.765625 C 0.941406 -4.140625 1.21875 -4.414062 1.5625 -4.59375 C 1.914062 -4.78125 2.3125 -4.875 2.75 -4.875 C 3.425781 -4.875 3.941406 -4.691406 4.296875 -4.328125 C 4.660156 -3.972656 4.84375 -3.453125 4.84375 -2.765625 C 4.84375 -2.515625 4.835938 -2.316406 4.828125 -2.171875 Z M 3.703125 -2.90625 C 3.691406 -3.269531 3.601562 -3.535156 3.4375 -3.703125 C 3.28125 -3.867188 3.050781 -3.953125 2.75 -3.953125 C 2.144531 -3.953125 1.789062 -3.601562 1.6875 -2.90625 Z M 3.703125 -2.90625 "/></g></g><g transform="translate(111.393781, 20.816782)"><g><path d="M 1.859375 0.09375 C 1.554688 0.09375 1.289062 0.0351562 1.0625 -0.078125 C 0.84375 -0.191406 0.671875 -0.359375 0.546875 -0.578125 C 0.421875 -0.796875 0.359375 -1.054688 0.359375 -1.359375 C 0.359375 -1.640625 0.421875 -1.875 0.546875 -2.0625 C 0.671875 -2.257812 0.859375 -2.421875 1.109375 -2.546875 C 1.367188 -2.671875 1.703125 -2.765625 2.109375 -2.828125 C 2.398438 -2.878906 2.617188 -2.929688 2.765625 -2.984375 C 2.910156 -3.035156 3.007812 -3.097656 3.0625 -3.171875 C 3.113281 -3.242188 3.140625 -3.332031 3.140625 -3.4375 C 3.140625 -3.59375 3.085938 -3.707031 2.984375 -3.78125 C 2.878906 -3.863281 2.703125 -3.90625 2.453125 -3.90625 C 2.179688 -3.90625 1.925781 -3.847656 1.6875 -3.734375 C 1.445312 -3.617188 1.238281 -3.460938 1.0625 -3.265625 L 0.984375 -3.265625 L 0.46875 -4.03125 C 0.71875 -4.289062 1.015625 -4.492188 1.359375 -4.640625 C 1.710938 -4.796875 2.097656 -4.875 2.515625 -4.875 C 3.140625 -4.875 3.59375 -4.738281 3.875 -4.46875 C 4.164062 -4.207031 4.3125 -3.828125 4.3125 -3.328125 L 4.3125 -1.25 C 4.3125 -1.03125 4.40625 -0.921875 4.59375 -0.921875 C 4.664062 -0.921875 4.738281 -0.9375 4.8125 -0.96875 L 4.859375 -0.953125 L 4.953125 -0.109375 C 4.890625 -0.0664062 4.796875 -0.03125 4.671875 0 C 4.554688 0.0195312 4.425781 0.03125 4.28125 0.03125 C 4 0.03125 3.773438 -0.0195312 3.609375 -0.125 C 3.453125 -0.238281 3.335938 -0.410156 3.265625 -0.640625 L 3.171875 -0.65625 C 2.941406 -0.15625 2.503906 0.09375 1.859375 0.09375 Z M 2.25 -0.8125 C 2.53125 -0.8125 2.753906 -0.90625 2.921875 -1.09375 C 3.085938 -1.28125 3.171875 -1.535156 3.171875 -1.859375 L 3.171875 -2.359375 L 3.078125 -2.375 C 3.003906 -2.3125 2.910156 -2.257812 2.796875 -2.21875 C 2.679688 -2.1875 2.515625 -2.148438 2.296875 -2.109375 C 2.035156 -2.066406 1.847656 -1.992188 1.734375 -1.890625 C 1.617188 -1.785156 1.5625 -1.632812 1.5625 -1.4375 C 1.5625 -1.226562 1.617188 -1.070312 1.734375 -0.96875 C 1.859375 -0.863281 2.03125 -0.8125 2.25 -0.8125 Z M 2.25 -0.8125 "/></g></g><g transform="translate(116.445442, 20.816782)"><g><path d="M 2.234375 0.09375 C 1.910156 0.09375 1.613281 0.0546875 1.34375 -0.015625 C 1.070312 -0.0976562 0.835938 -0.207031 0.640625 -0.34375 C 0.453125 -0.476562 0.3125 -0.628906 0.21875 -0.796875 L 0.890625 -1.53125 L 0.984375 -1.53125 C 1.140625 -1.3125 1.320312 -1.144531 1.53125 -1.03125 C 1.75 -0.925781 1.988281 -0.875 2.25 -0.875 C 2.476562 -0.875 2.648438 -0.914062 2.765625 -1 C 2.890625 -1.09375 2.953125 -1.21875 2.953125 -1.375 C 2.953125 -1.488281 2.910156 -1.585938 2.828125 -1.671875 C 2.742188 -1.753906 2.601562 -1.816406 2.40625 -1.859375 L 1.78125 -2.015625 C 1.300781 -2.128906 0.953125 -2.300781 0.734375 -2.53125 C 0.515625 -2.769531 0.40625 -3.066406 0.40625 -3.421875 C 0.40625 -3.722656 0.484375 -3.984375 0.640625 -4.203125 C 0.796875 -4.421875 1.007812 -4.585938 1.28125 -4.703125 C 1.5625 -4.816406 1.882812 -4.875 2.25 -4.875 C 2.675781 -4.875 3.03125 -4.8125 3.3125 -4.6875 C 3.601562 -4.5625 3.828125 -4.394531 3.984375 -4.1875 L 3.34375 -3.5 L 3.25 -3.5 C 3.125 -3.644531 2.976562 -3.753906 2.8125 -3.828125 C 2.644531 -3.898438 2.457031 -3.9375 2.25 -3.9375 C 1.769531 -3.9375 1.53125 -3.785156 1.53125 -3.484375 C 1.53125 -3.359375 1.570312 -3.253906 1.65625 -3.171875 C 1.75 -3.097656 1.910156 -3.039062 2.140625 -3 L 2.71875 -2.859375 C 3.207031 -2.753906 3.5625 -2.585938 3.78125 -2.359375 C 4.007812 -2.128906 4.125 -1.820312 4.125 -1.4375 C 4.125 -1.132812 4.046875 -0.863281 3.890625 -0.625 C 3.742188 -0.394531 3.53125 -0.21875 3.25 -0.09375 C 2.96875 0.03125 2.628906 0.09375 2.234375 0.09375 Z M 2.234375 0.09375 "/></g></g></g><g fill="#ff3131" fill-opacity="1"><g transform="translate(120.789089, 20.816782)"><g><path d="M 1.0625 2.03125 C 0.851562 2.03125 0.664062 2.015625 0.5 1.984375 C 0.332031 1.953125 0.195312 1.910156 0.09375 1.859375 L 0.28125 0.890625 L 0.359375 0.859375 C 0.429688 0.898438 0.519531 0.929688 0.625 0.953125 C 0.738281 0.972656 0.851562 0.984375 0.96875 0.984375 C 1.15625 0.984375 1.3125 0.957031 1.4375 0.90625 C 1.570312 0.851562 1.679688 0.769531 1.765625 0.65625 C 1.859375 0.539062 1.941406 0.378906 2.015625 0.171875 L 0.109375 -4.78125 L 1.359375 -4.78125 L 2.546875 -1.453125 L 2.65625 -1.453125 L 3.8125 -4.78125 L 5.046875 -4.78125 L 3.109375 0.296875 C 2.960938 0.710938 2.796875 1.046875 2.609375 1.296875 C 2.421875 1.546875 2.203125 1.726562 1.953125 1.84375 C 1.703125 1.96875 1.40625 2.03125 1.0625 2.03125 Z M 1.0625 2.03125 "/></g></g></g><g fill="#ff3131" fill-opacity="1"><g transform="translate(150.210344, 20.816782)"><g><path d="M 1.984375 0.09375 C 1.554688 0.09375 1.226562 -0.0195312 1 -0.25 C 0.769531 -0.488281 0.65625 -0.84375 0.65625 -1.3125 L 0.65625 -6.71875 L 1.859375 -6.71875 L 1.859375 -1.375 C 1.859375 -1.070312 1.984375 -0.921875 2.234375 -0.921875 C 2.296875 -0.921875 2.367188 -0.9375 2.453125 -0.96875 L 2.515625 -0.953125 L 2.625 -0.015625 C 2.550781 0.015625 2.457031 0.0390625 2.34375 0.0625 C 2.238281 0.0820312 2.117188 0.09375 1.984375 0.09375 Z M 1.984375 0.09375 "/></g></g><g transform="translate(152.964216, 20.816782)"><g><path d="M 1.859375 0.09375 C 1.554688 0.09375 1.289062 0.0351562 1.0625 -0.078125 C 0.84375 -0.191406 0.671875 -0.359375 0.546875 -0.578125 C 0.421875 -0.796875 0.359375 -1.054688 0.359375 -1.359375 C 0.359375 -1.640625 0.421875 -1.875 0.546875 -2.0625 C 0.671875 -2.257812 0.859375 -2.421875 1.109375 -2.546875 C 1.367188 -2.671875 1.703125 -2.765625 2.109375 -2.828125 C 2.398438 -2.878906 2.617188 -2.929688 2.765625 -2.984375 C 2.910156 -3.035156 3.007812 -3.097656 3.0625 -3.171875 C 3.113281 -3.242188 3.140625 -3.332031 3.140625 -3.4375 C 3.140625 -3.59375 3.085938 -3.707031 2.984375 -3.78125 C 2.878906 -3.863281 2.703125 -3.90625 2.453125 -3.90625 C 2.179688 -3.90625 1.925781 -3.847656 1.6875 -3.734375 C 1.445312 -3.617188 1.238281 -3.460938 1.0625 -3.265625 L 0.984375 -3.265625 L 0.46875 -4.03125 C 0.71875 -4.289062 1.015625 -4.492188 1.359375 -4.640625 C 1.710938 -4.796875 2.097656 -4.875 2.515625 -4.875 C 3.140625 -4.875 3.59375 -4.738281 3.875 -4.46875 C 4.164062 -4.207031 4.3125 -3.828125 4.3125 -3.328125 L 4.3125 -1.25 C 4.3125 -1.03125 4.40625 -0.921875 4.59375 -0.921875 C 4.664062 -0.921875 4.738281 -0.9375 4.8125 -0.96875 L 4.859375 -0.953125 L 4.953125 -0.109375 C 4.890625 -0.0664062 4.796875 -0.03125 4.671875 0 C 4.554688 0.0195312 4.425781 0.03125 4.28125 0.03125 C 4 0.03125 3.773438 -0.0195312 3.609375 -0.125 C 3.453125 -0.238281 3.335938 -0.410156 3.265625 -0.640625 L 3.171875 -0.65625 C 2.941406 -0.15625 2.503906 0.09375 1.859375 0.09375 Z M 2.25 -0.8125 C 2.53125 -0.8125 2.753906 -0.90625 2.921875 -1.09375 C 3.085938 -1.28125 3.171875 -1.535156 3.171875 -1.859375 L 3.171875 -2.359375 L 3.078125 -2.375 C 3.003906 -2.3125 2.910156 -2.257812 2.796875 -2.21875 C 2.679688 -2.1875 2.515625 -2.148438 2.296875 -2.109375 C 2.035156 -2.066406 1.847656 -1.992188 1.734375 -1.890625 C 1.617188 -1.785156 1.5625 -1.632812 1.5625 -1.4375 C 1.5625 -1.226562 1.617188 -1.070312 1.734375 -0.96875 C 1.859375 -0.863281 2.03125 -0.8125 2.25 -0.8125 Z M 2.25 -0.8125 "/></g></g><g transform="translate(158.015877, 20.816782)"><g><path d="M 3.34375 0.09375 C 2.738281 0.09375 2.285156 -0.132812 1.984375 -0.59375 L 1.890625 -0.578125 L 1.890625 0 L 0.6875 0 L 0.6875 -6.71875 L 1.890625 -6.71875 L 1.890625 -4.21875 L 1.984375 -4.203125 C 2.148438 -4.429688 2.34375 -4.597656 2.5625 -4.703125 C 2.789062 -4.816406 3.0625 -4.875 3.375 -4.875 C 3.757812 -4.875 4.097656 -4.78125 4.390625 -4.59375 C 4.679688 -4.414062 4.90625 -4.140625 5.0625 -3.765625 C 5.226562 -3.398438 5.3125 -2.941406 5.3125 -2.390625 C 5.3125 -1.847656 5.226562 -1.390625 5.0625 -1.015625 C 4.894531 -0.640625 4.660156 -0.359375 4.359375 -0.171875 C 4.066406 0.00390625 3.726562 0.09375 3.34375 0.09375 Z M 2.984375 -0.921875 C 3.335938 -0.921875 3.601562 -1.039062 3.78125 -1.28125 C 3.96875 -1.519531 4.0625 -1.890625 4.0625 -2.390625 C 4.0625 -2.898438 3.96875 -3.269531 3.78125 -3.5 C 3.601562 -3.738281 3.335938 -3.859375 2.984375 -3.859375 C 2.640625 -3.859375 2.367188 -3.734375 2.171875 -3.484375 C 1.972656 -3.242188 1.875 -2.878906 1.875 -2.390625 C 1.875 -1.898438 1.972656 -1.53125 2.171875 -1.28125 C 2.367188 -1.039062 2.640625 -0.921875 2.984375 -0.921875 Z M 2.984375 -0.921875 "/></g></g><g transform="translate(163.753834, 20.816782)"><g><path d="M 2.234375 0.09375 C 1.910156 0.09375 1.613281 0.0546875 1.34375 -0.015625 C 1.070312 -0.0976562 0.835938 -0.207031 0.640625 -0.34375 C 0.453125 -0.476562 0.3125 -0.628906 0.21875 -0.796875 L 0.890625 -1.53125 L 0.984375 -1.53125 C 1.140625 -1.3125 1.320312 -1.144531 1.53125 -1.03125 C 1.75 -0.925781 1.988281 -0.875 2.25 -0.875 C 2.476562 -0.875 2.648438 -0.914062 2.765625 -1 C 2.890625 -1.09375 2.953125 -1.21875 2.953125 -1.375 C 2.953125 -1.488281 2.910156 -1.585938 2.828125 -1.671875 C 2.742188 -1.753906 2.601562 -1.816406 2.40625 -1.859375 L 1.78125 -2.015625 C 1.300781 -2.128906 0.953125 -2.300781 0.734375 -2.53125 C 0.515625 -2.769531 0.40625 -3.066406 0.40625 -3.421875 C 0.40625 -3.722656 0.484375 -3.984375 0.640625 -4.203125 C 0.796875 -4.421875 1.007812 -4.585938 1.28125 -4.703125 C 1.5625 -4.816406 1.882812 -4.875 2.25 -4.875 C 2.675781 -4.875 3.03125 -4.8125 3.3125 -4.6875 C 3.601562 -4.5625 3.828125 -4.394531 3.984375 -4.1875 L 3.34375 -3.5 L 3.25 -3.5 C 3.125 -3.644531 2.976562 -3.753906 2.8125 -3.828125 C 2.644531 -3.898438 2.457031 -3.9375 2.25 -3.9375 C 1.769531 -3.9375 1.53125 -3.785156 1.53125 -3.484375 C 1.53125 -3.359375 1.570312 -3.253906 1.65625 -3.171875 C 1.75 -3.097656 1.910156 -3.039062 2.140625 -3 L 2.71875 -2.859375 C 3.207031 -2.753906 3.5625 -2.585938 3.78125 -2.359375 C 4.007812 -2.128906 4.125 -1.820312 4.125 -1.4375 C 4.125 -1.132812 4.046875 -0.863281 3.890625 -0.625 C 3.742188 -0.394531 3.53125 -0.21875 3.25 -0.09375 C 2.96875 0.03125 2.628906 0.09375 2.234375 0.09375 Z M 2.234375 0.09375 "/></g></g></g></svg>